<svg id="Layer_1" enable-background="new 0 0 511.994 511.994" height="512" viewBox="0 0 511.994 511.994" width="512" xmlns="http://www.w3.org/2000/svg"><g><g><path d="m423.138 157.684c-13.555-23.27-32.598-43.198-55.288-57.921l2.3-63.65c.461-12.748-5.475-23.767-16.284-30.23-12.985-7.765-31.181-7.851-44.251-.21-10.722 6.27-16.685 16.976-16.359 29.372l1.003 38.144c-6.722-.79-13.51-1.195-20.285-1.195-45.751 0-88.888 17.744-121.465 49.964-32.606 32.25-50.563 74.97-50.563 120.29 0 10.383-9.244 29.462-24.729 51.036-14.404 20.07-12.34 34.197-8.071 42.515 4.5 8.769 15.635 19.048 42.925 21.063v43.753c0 29.594 24.293 53.67 54.153 53.67 26.102 0 40.475.968 46.598 6.26 5.996 5.182 7.887 18.244 9.451 42.104.345 5.258 4.71 9.346 9.979 9.346h143.395c2.766 0 5.408-1.146 7.299-3.164s2.86-4.729 2.68-7.489c-1.268-19.35-1.794-33.598-1.709-46.199.037-5.522-4.409-10.03-9.933-10.067-.022 0-.046 0-.068 0-5.491 0-9.962 4.433-9.999 9.933-.072 10.642.271 22.334 1.1 36.987h-123.455c-1.742-21.759-4.682-37.092-15.661-46.581-12.01-10.379-30.558-11.128-59.676-11.128-18.832 0-34.153-15.104-34.153-33.67v-13.399c2.64 0 6.649 2.005 10.527 3.944 5.678 2.839 12.112 6.056 19.473 6.056 5.522 0 10-4.478 10-10s-4.478-10-10-10c-2.64 0-6.649-2.005-10.527-3.944-5.678-2.839-12.112-6.056-19.473-6.056v-20.001c0-5.522-4.478-10-10-10-18.608 0-31.742-3.943-35.131-10.547-2.401-4.68-.023-12.597 6.525-21.722 12.993-18.104 28.48-43.676 28.48-62.698 0-82.851 68.199-150.254 152.028-150.254 6.962 0 13.937.477 20.817 1.417l2.021 76.824c.502 19.058 15.544 33.985 34.246 33.985 18.516 0 33.557-14.885 34.241-33.887l1.687-46.669c36.758 28.353 59.017 72.388 59.017 118.585 0 27.546-7.704 54.534-22.281 78.046-9.386 15.143-16.738 29.188-22.477 42.936-2.127 5.097.28 10.953 5.377 13.08 1.259.525 2.563.774 3.848.774 3.914 0 7.631-2.313 9.232-6.151 5.324-12.755 12.199-25.873 21.019-40.101 16.54-26.68 25.282-57.311 25.282-88.584 0-29.644-7.907-58.886-22.865-84.567zm-92.08 26.535c-7.777 0-14.037-6.374-14.252-14.511l-3.556-135.189c-.137-5.171 1.977-8.959 6.461-11.581 3.384-1.979 7.609-2.966 11.838-2.966 4.312 0 8.627 1.027 12.053 3.075 4.616 2.761 6.763 6.798 6.563 12.343l-4.851 134.221c-.296 8.191-6.558 14.608-14.256 14.608z"/><path d="m154.578 255.139c-5.522 0-9.997 4.478-9.997 10s4.481 10 10.004 10 10-4.478 10-10-4.478-10-10-10z"/><path d="m331.059 216.552c-17.398 0-31.554 14.155-31.554 31.555s14.155 31.555 31.554 31.555 31.555-14.155 31.555-31.555-14.156-31.555-31.555-31.555zm0 43.11c-6.371 0-11.554-5.184-11.554-11.555s5.183-11.555 11.554-11.555 11.555 5.184 11.555 11.555-5.184 11.555-11.555 11.555z"/><path d="m182.349 228.961c5.522 0 10-4.478 10-10s-4.478-10-10-10c-7.361 0-13.796 3.218-19.473 6.057-3.878 1.938-7.889 3.944-10.527 3.944-5.522 0-10 4.478-10 10s4.478 10 10 10c7.361 0 13.796-3.218 19.473-6.057 3.877-1.94 7.888-3.944 10.527-3.944z"/><path d="m377.675 400.231h-.008c-5.522 0-9.996 4.478-9.996 10s4.481 10 10.004 10 10-4.478 10-10-4.478-10-10-10z"/></g></g></svg>