<svg width="61" height="23" viewBox="0 0 61 23" fill="none" xmlns="http://www.w3.org/2000/svg">
<path d="M42.2559 17.0208V4.92297H46.5084C47.6694 4.92297 48.6042 5.25291 49.3129 5.91279C50.0216 6.56046 50.3761 7.39752 50.3761 8.424C50.3761 9.4627 50.0216 10.312 49.3129 10.9719C48.6042 11.6318 47.6694 11.9617 46.5084 11.9617H43.6856V17.0208H42.2559ZM43.6856 10.6786H46.4718C47.2294 10.6786 47.822 10.477 48.2498 10.0737C48.6775 9.67044 48.8913 9.12666 48.8913 8.44233C48.8913 7.77024 48.6775 7.23255 48.2498 6.82929C47.822 6.41382 47.2294 6.20607 46.4718 6.20607H43.6856V10.6786ZM53.6497 15.7377H61V17.0208H51.4134V16.5992L58.7087 6.20607H52.2016V4.92297H60.9817V5.34456L53.6497 15.7377Z" fill="#31383C"/>
<path d="M25.5311 0H11.1289C4.98259 0 0 4.98259 0 11.1289C0 17.2753 4.98259 22.2579 11.1289 22.2579H25.5311C31.6774 22.2579 36.66 17.2753 36.66 11.1289C36.66 4.98259 31.6774 0 25.5311 0Z" fill="#31383C"/>
<path d="M24.167 5.3243C23.1134 5.3243 22.2561 6.10122 22.2561 7.05625V7.71901C22.2561 9.26017 21.0919 10.5595 19.5188 10.9323V6.89317C19.9265 6.80537 20.23 6.47307 20.23 6.07655C20.23 5.61305 19.8154 5.23718 19.3041 5.23718H17.8816C17.3703 5.23718 16.9557 5.61305 16.9557 6.07655C16.9557 6.47307 17.2592 6.80537 17.667 6.89317V10.9323C16.0938 10.5595 14.9296 9.26017 14.9296 7.71901V7.05625C14.9296 6.10122 14.0723 5.3243 13.0188 5.3243C12.5074 5.3243 12.0929 5.70009 12.0929 6.16367C12.0929 6.62717 12.5074 7.00304 13.0188 7.00304C13.0513 7.00304 13.0777 7.02687 13.0777 7.05625V7.71901C13.0777 10.1898 15.0651 12.2476 17.667 12.648V15.0259C17.2274 15.0914 16.8922 15.4372 16.8922 15.8541C16.8922 16.3175 17.3067 16.6934 17.8181 16.6934H19.2404C19.7517 16.6934 20.23 16.2599 20.23 15.7964C20.23 15.4188 19.9128 15.1379 19.5188 15.0465V12.648C22.1206 12.2476 24.108 10.1898 24.108 7.71901V7.05625C24.108 7.02687 24.1345 7.00304 24.167 7.00304C24.6783 7.00304 25.0929 6.62717 25.0929 6.16367C25.0929 5.70009 24.6782 5.3243 24.167 5.3243Z" fill="white"/>
</svg>
