<svg id="Layer_1" enable-background="new 0 0 512.002 512.002" height="512" viewBox="0 0 512.002 512.002" width="512" xmlns="http://www.w3.org/2000/svg"><g><g><path d="m114.581 255.147c-5.523 0-9.997 4.477-9.997 10s4.481 10 10.004 10 10-4.477 10-10-4.477-10-10-10z"/><path d="m486.008 130c0-71.682-58.318-130-130-130-50.892 0-95.04 29.401-116.372 72.105-1.894-.062-3.785-.103-5.659-.103-45.751 0-88.888 17.744-121.465 49.964-32.606 32.25-50.563 74.969-50.563 120.29 0 10.382-9.244 29.461-24.728 51.036-14.405 20.07-12.34 34.198-8.072 42.515 4.5 8.768 15.635 19.046 42.924 21.063v43.753c0 29.594 24.293 53.67 54.153 53.67 26.102 0 40.475.968 46.599 6.26 5.996 5.182 7.886 18.244 9.45 42.103.344 5.258 4.709 9.346 9.979 9.346h143.396c2.766 0 5.408-1.146 7.298-3.164 1.891-2.019 2.861-4.73 2.68-7.49-1.267-19.339-1.794-33.588-1.71-46.2.037-5.523-4.41-10.03-9.933-10.067-.023 0-.045 0-.068 0-5.491 0-9.961 4.433-9.999 9.933-.071 10.649.272 22.341 1.1 36.987h-123.454c-1.742-21.759-4.681-37.092-15.661-46.582-12.01-10.378-30.557-11.127-59.676-11.127-18.832 0-34.153-15.104-34.153-33.67v-13.399c6.449 0 15.327 3.076 24.999 8.661 1.575.91 3.294 1.341 4.991 1.341 3.456 0 6.817-1.793 8.669-5.001 2.762-4.783 1.123-10.899-3.66-13.661-8.96-5.173-22.305-11.34-35-11.34v-20.001c0-5.523-4.477-10-10-10-18.608 0-31.741-3.943-35.131-10.547-2.401-4.68-.022-12.597 6.527-21.722 12.992-18.103 28.479-43.675 28.479-62.697 0-82.088 66.953-149 149.721-150.225-3.677 12.016-5.662 24.765-5.662 37.969 0 71.682 58.318 130 130 130 10.061 0 19.859-1.15 29.27-3.323-2.207 22.479-9.54 44.248-21.553 63.626-9.387 15.144-16.74 29.188-22.477 42.934-2.127 5.097.28 10.953 5.377 13.08 1.259.525 2.563.774 3.848.774 3.914 0 7.631-2.313 9.232-6.151 5.323-12.753 12.198-25.87 21.019-40.099 15.149-24.437 23.753-52.23 25.085-80.765 47.041-19.582 80.2-66.027 80.2-120.076zm-130 110c-60.654 0-110-49.346-110-110s49.346-110 110-110 110 49.346 110 110-49.345 110-110 110z"/><path d="m406.565 59.826c-.388-3.066-2.172-5.782-4.833-7.354-13.807-8.159-29.617-12.472-45.724-12.472-49.626 0-90 40.374-90 90 0 16.107 4.313 31.918 12.472 45.723 1.573 2.661 4.288 4.445 7.354 4.833.419.053.838.079 1.255.079 2.635 0 5.184-1.042 7.071-2.929l109.555-109.554c2.186-2.186 3.238-5.26 2.85-8.326zm-116.499 93.69c-2.673-7.505-4.058-15.461-4.058-23.516 0-38.598 31.402-70 70-70 8.054 0 16.011 1.385 23.516 4.058z"/><path d="m433.537 84.278c-1.572-2.662-4.287-4.446-7.354-4.834-3.066-.389-6.14.664-8.327 2.85l-109.554 109.554c-2.186 2.186-3.238 5.26-2.85 8.327s2.172 5.782 4.834 7.354c13.808 8.159 29.619 12.471 45.722 12.471 49.626 0 90-40.374 90-90 0-16.104-4.312-31.914-12.471-45.722zm-77.529 115.722c-8.053 0-16.009-1.385-23.516-4.058l89.458-89.458c2.673 7.507 4.058 15.462 4.058 23.516 0 38.598-31.401 70-70 70z"/><path d="m337.685 400.239h-.007c-5.523 0-9.996 4.477-9.996 10s4.48 10 10.003 10 10-4.477 10-10-4.477-10-10-10z"/><path d="m152.152 230.146c0-5.523-4.477-10-10-10-3.812 0-8.589-2.039-13.646-4.198-6.372-2.72-13.595-5.803-21.497-5.803-5.523 0-10 4.477-10 10s4.477 10 10 10c3.812 0 8.588 2.039 13.645 4.197 6.373 2.72 13.595 5.803 21.498 5.803 5.523.001 10-4.476 10-9.999z"/></g></g></svg>